<svg xmlns="http://www.w3.org/2000/svg" viewBox="0 0 64 64" fill="none" role="img" aria-label="Hamdel">
  <defs>
    <linearGradient id="psBg" x1="10" y1="2" x2="54" y2="62" gradientUnits="userSpaceOnUse">
      <stop stop-color="#818CF8"/>
      <stop offset="0.45" stop-color="#4F46E5"/>
      <stop offset="1" stop-color="#312E81"/>
    </linearGradient>
  </defs>
  <rect width="64" height="64" rx="16" fill="url(#psBg)"/>
  <!-- Soft highlight -->
  <ellipse cx="24" cy="16" rx="18" ry="10" fill="#FFFFFF" opacity="0.12"/>
  <!-- Mind -->
  <circle cx="32" cy="27" r="11" fill="#FFFFFF"/>
  <!-- Calm path inside mind (growth / balance) -->
  <path
    d="M24.8 28.2c1.8-3.6 3.8-5.4 5.8-5.4 2.1 0 3.2 2.3 4.7 2.3 1.7 0 3.4-1.9 5-4.5"
    stroke="#4338CA"
    stroke-width="2.6"
    stroke-linecap="round"
    stroke-linejoin="round"
  />
  <!-- Support / care arc -->
  <path
    d="M17.5 44c5.5 7.2 12.8 10.8 14.5 10.8S41 51.2 46.5 44"
    stroke="#FFFFFF"
    stroke-width="3.4"
    stroke-linecap="round"
  />
  <!-- Small heart nestled in the arc -->
  <path
    d="M32 48.8c-.35 0-5.1-3.1-5.1-6 0-1.65 1.25-2.85 2.75-2.85.95 0 1.8.45 2.35 1.15.55-.7 1.4-1.15 2.35-1.15 1.5 0 2.75 1.2 2.75 2.85 0 2.9-4.75 6-5.1 6Z"
    fill="#C7D2FE"
  />
</svg>
